<svg width="190" height="58" viewBox="0 0 190 58" fill="none" xmlns="http://www.w3.org/2000/svg">
<path d="M17.2067 36.456C15.2698 37.7195 12.6874 37.1111 11.4884 35.1456L0.651336 17.7834C-0.593772 15.8179 0.00572428 13.1972 1.94256 11.9804C3.87939 10.7169 6.46184 11.3253 7.66084 13.2908L18.4979 30.653C19.6969 32.6185 19.1435 35.1924 17.2067 36.456Z" fill="white"/>
<path d="M18.636 27.3771C16.6531 26.2071 16.0074 23.6332 17.1603 21.6209L21.8179 13.4312C22.9708 11.4189 25.5072 10.7637 27.4901 11.9337C29.4731 13.1036 30.1187 15.6775 28.9658 17.6898L24.3082 25.8328C23.1553 27.8451 20.619 28.5471 18.636 27.3771Z" fill="white"/>
<path d="M15.0397 17.5037C16.7206 17.5037 18.0833 16.1206 18.0833 14.4144C18.0833 12.7083 16.7206 11.3252 15.0397 11.3252C13.3588 11.3252 11.9961 12.7083 11.9961 14.4144C11.9961 16.1206 13.3588 17.5037 15.0397 17.5037Z" fill="white"/>
<path d="M45.3762 34.7713C44.4078 35.7073 43.3932 36.4092 42.3787 36.8304C41.3642 37.2516 40.2113 37.4388 38.9662 37.4388C37.7672 37.4388 36.6143 37.2516 35.5537 36.8772C34.493 36.5028 33.5707 35.9412 32.7406 35.1925C31.9567 34.4437 31.3111 33.5077 30.8499 32.3846C30.3888 31.355 30.1582 30.0447 30.1582 28.5471C30.1582 27.0496 30.3888 25.7392 30.8499 24.6161C31.3111 23.4929 31.9567 22.5569 32.7406 21.8082C33.5246 21.0594 34.493 20.4978 35.5537 20.1702C36.6143 19.7958 37.7672 19.6086 38.9662 19.6086C40.1191 19.6086 41.2258 19.7958 42.1481 20.1702C43.1165 20.5446 44.0388 21.1998 44.9612 22.089L42.3787 24.85C41.8714 24.3821 41.3642 24.0545 40.7647 23.8673C40.2113 23.6333 39.6118 23.5397 39.0123 23.5397C38.3206 23.5397 37.675 23.6801 37.0755 23.9141C36.476 24.1481 35.9687 24.5225 35.5537 24.9436C35.1386 25.3648 34.8158 25.9264 34.5391 26.5348C34.3086 27.1432 34.1702 27.7983 34.1702 28.5471C34.1702 29.3427 34.3086 30.0447 34.5391 30.653C34.7697 31.2614 35.1386 31.7762 35.5537 32.1974C35.9687 32.6186 36.476 32.8994 37.0294 33.1333C37.5827 33.3673 38.2283 33.4609 38.874 33.4609C39.5196 33.4609 40.1652 33.3673 40.8108 33.1333C41.4564 32.9462 42.0098 32.5718 42.5171 32.057L45.3762 34.7713Z" fill="white"/>
<path d="M62.5313 25.1307C62.1163 24.0543 61.5629 23.1184 60.779 22.3228C60.0411 21.5272 59.1188 20.9189 58.0582 20.4509C56.9975 19.9829 55.7985 19.7489 54.4612 19.7489C53.1239 19.7489 51.971 19.9829 50.9103 20.4509C49.8497 20.9189 48.9274 21.5272 48.1895 22.3228C47.4517 23.1184 46.8983 24.0543 46.4833 25.1307C46.0683 26.2071 45.8838 27.3302 45.8838 28.547C45.8838 29.7637 46.0683 30.8869 46.4833 31.9633C46.8522 33.0396 47.4517 33.9756 48.1895 34.7712C48.9274 35.5667 49.8497 36.1751 50.9103 36.6431C51.971 37.1111 53.17 37.3451 54.5534 37.3451C55.9369 37.3451 57.0898 37.1111 58.1965 36.6431C59.2572 36.1751 60.1795 35.5667 60.9173 34.7712C61.6552 33.9756 62.2546 33.0396 62.6236 31.9633C62.9925 30.8869 63.2231 29.7637 63.2231 28.547C63.1308 27.3302 62.9464 26.2071 62.5313 25.1307ZM58.7499 30.4189C58.5654 31.0273 58.2888 31.5421 57.8737 32.0101C57.5048 32.478 57.0436 32.8524 56.4441 33.1332C55.8908 33.414 55.2452 33.5544 54.4612 33.5544C53.7234 33.5544 53.0777 33.414 52.4783 33.1332C51.9249 32.8524 51.4637 32.478 51.0487 32.0101C50.6798 31.5421 50.4031 31.0273 50.2186 30.4189C50.0341 29.8105 49.9419 29.2022 49.9419 28.547C49.9419 27.8918 50.0341 27.2834 50.2186 26.7218C50.4031 26.1135 50.6798 25.5987 51.0948 25.1307C51.4637 24.6627 51.9249 24.2883 52.4783 24.0075C53.0316 23.7268 53.6772 23.5864 54.4151 23.5864C55.1068 23.5864 55.7524 23.7268 56.3058 24.0075C56.8592 24.2883 57.3203 24.6627 57.7354 25.1307C58.1043 25.5987 58.4271 26.1135 58.6577 26.7218C58.8882 27.3302 58.9805 27.9386 58.9805 28.547C59.0266 29.2022 58.9344 29.8105 58.7499 30.4189Z" fill="white"/>
<path d="M78.2104 36.9238V28.1258C78.2104 27.4706 78.1182 26.8622 77.9337 26.3474C77.7493 25.7858 77.5187 25.3179 77.1498 24.8967C76.827 24.4755 76.4119 24.1947 75.9047 23.9607C75.3974 23.7267 74.844 23.6331 74.1984 23.6331C73.5528 23.6331 72.9994 23.7735 72.446 24.0075C71.9388 24.2415 71.4776 24.6159 71.1087 25.0371C70.7398 25.4582 70.4631 25.973 70.2325 26.5346C70.048 27.0962 69.9097 27.7046 69.9097 28.3597V36.9706H65.8516V21.4804C65.8516 20.6848 66.4511 20.0764 67.235 20.0764H69.7714V22.3696C70.6475 21.5272 71.4776 20.872 72.3538 20.4508C73.23 20.0296 74.1984 19.7957 75.2129 19.7957C76.1814 19.7957 77.1037 19.9828 77.9799 20.3572C78.856 20.7316 79.5939 21.2464 80.1934 21.9484C80.839 22.6504 81.3463 23.4927 81.7152 24.5223C82.0841 25.5518 82.2686 26.7218 82.2686 28.0322V36.877H78.2104V36.9238Z" fill="white"/>
<path d="M101.729 25.1307C101.314 24.0543 100.761 23.1184 99.9767 22.3228C99.2388 21.5272 98.3165 20.9189 97.2559 20.4509C96.1953 19.9829 94.9963 19.7489 93.6589 19.7489C92.3216 19.7489 91.1687 19.9829 90.1081 20.4509C89.0474 20.9189 88.1251 21.5272 87.3873 22.3228C86.6495 23.1184 86.0961 24.0543 85.681 25.1307C85.266 26.2071 85.0815 27.3302 85.0815 28.547C85.0815 29.7637 85.266 30.8869 85.681 31.9633C86.0961 33.0396 86.6495 33.9756 87.3873 34.7712C88.1251 35.5667 89.0474 36.1751 90.1081 36.6431C91.1687 37.1111 92.3677 37.3451 93.7512 37.3451C95.0885 37.3451 96.2875 37.1111 97.3942 36.6431C98.4549 36.1751 99.3772 35.5667 100.115 34.7712C100.853 33.9756 101.452 33.0396 101.821 31.9633C102.19 30.8869 102.421 29.7637 102.421 28.547C102.329 27.3302 102.144 26.2071 101.729 25.1307ZM97.9015 30.4189C97.717 31.0273 97.4404 31.5421 97.0253 32.0101C96.6564 32.478 96.1953 32.8524 95.5958 33.1332C95.0424 33.414 94.3968 33.5544 93.6128 33.5544C92.875 33.5544 92.2294 33.414 91.6299 33.1332C91.0765 32.8524 90.6153 32.478 90.2003 32.0101C89.8314 31.5421 89.5547 31.0273 89.3702 30.4189C89.1858 29.8105 89.0935 29.2022 89.0935 28.547C89.0935 27.8918 89.1858 27.2834 89.3702 26.7218C89.5547 26.1135 89.8314 25.5987 90.2464 25.1307C90.6153 24.6627 91.0765 24.2883 91.6299 24.0075C92.1833 23.7268 92.8289 23.5864 93.5667 23.5864C94.2584 23.5864 94.904 23.7268 95.4574 24.0075C96.0108 24.2883 96.4719 24.6627 96.887 25.1307C97.2559 25.5987 97.5787 26.1135 97.8093 26.7218C98.0399 27.3302 98.1321 27.9386 98.1321 28.547C98.2243 29.2022 98.1321 29.8105 97.9015 30.4189Z" fill="white"/>
<path fill-rule="evenodd" clip-rule="evenodd" d="M131.895 57.0939H165.098C178.886 57.0939 190 45.7687 190 31.8228V25.2711C190 11.3252 178.84 0 165.098 0H131.895C118.153 0 106.993 11.3252 106.993 25.2711V31.8228C106.993 45.7687 118.153 57.0939 131.895 57.0939ZM126.038 27.9397V36.925H130.327V27.8929C130.327 27.3314 130.373 26.8166 130.557 26.3018C130.696 25.8338 130.926 25.3658 131.249 24.9915C131.572 24.5703 131.941 24.2895 132.402 24.0555C132.863 23.8215 133.37 23.7279 133.924 23.7279C134.477 23.7279 134.938 23.8215 135.353 24.0555C135.768 24.2895 136.091 24.5703 136.322 24.9447C136.598 25.319 136.783 25.7402 136.875 26.255C137.013 26.7698 137.06 27.2846 137.06 27.8461V36.8782H141.164V27.7994C141.164 26.5358 141.025 25.4126 140.749 24.4299C140.426 23.4003 140.011 22.6047 139.411 21.9028C138.812 21.2476 138.074 20.7328 137.198 20.3584C136.322 20.0308 135.307 19.8436 134.108 19.8436C133.555 19.8436 133.047 19.8904 132.54 19.984C132.033 20.1244 131.526 20.2648 131.065 20.4988C130.603 20.7328 130.142 21.0604 129.727 21.4348C129.312 21.856 128.897 22.324 128.528 22.9323C128.298 22.3707 128.021 21.9028 127.652 21.4816C127.283 21.0604 126.868 20.7328 126.453 20.4988C126.038 20.2648 125.577 20.0776 125.07 19.984C124.562 19.8436 124.101 19.7968 123.594 19.7968C123.179 19.7968 122.764 19.8436 122.349 19.9372C121.888 20.0308 121.519 20.1712 121.104 20.3584C120.689 20.5456 120.32 20.7796 119.997 21.0604C119.674 21.3412 119.397 21.7156 119.167 22.1368V20.0776H116.4C115.616 20.0776 115.016 20.686 115.016 21.4816V36.9718H119.121V27.9397C119.121 27.3782 119.213 26.8634 119.351 26.3486C119.49 25.8338 119.72 25.3658 120.043 24.9915C120.366 24.6171 120.735 24.2895 121.15 24.0555C121.565 23.8215 122.072 23.7279 122.625 23.7279C123.179 23.7279 123.686 23.8215 124.101 24.0555C124.516 24.2895 124.885 24.6171 125.162 24.9915C125.439 25.3658 125.669 25.8338 125.807 26.3486C125.946 26.8634 126.038 27.3782 126.038 27.9397ZM144.807 15.3503C144.807 14.7886 144.945 14.3673 145.176 13.9929C145.407 13.6184 145.729 13.3844 146.052 13.1972C146.421 13.0099 146.79 12.9163 147.205 12.9163C147.62 12.9163 148.035 13.0099 148.358 13.1972C148.727 13.3844 149.004 13.6652 149.234 13.9929C149.465 14.3673 149.603 14.7886 149.603 15.3503C149.603 15.9119 149.465 16.3332 149.234 16.7077C149.004 17.0821 148.681 17.3162 148.358 17.5034C147.989 17.6906 147.62 17.7842 147.205 17.7842C146.79 17.7842 146.375 17.6906 146.052 17.5034C145.683 17.3162 145.407 17.0353 145.176 16.7077C144.899 16.3332 144.807 15.9119 144.807 15.3503ZM145.176 20.0309H149.28V36.9251H145.176V20.0309ZM167.219 34.7722C166.25 35.7082 165.236 36.4102 164.221 36.8313C163.207 37.2525 162.054 37.4397 160.809 37.4397C159.61 37.4397 158.457 37.2525 157.396 36.8781C156.336 36.5037 155.413 35.9422 154.583 35.1934C153.799 34.4446 153.154 33.5087 152.692 32.3855C152.231 31.2623 152.001 29.952 152.001 28.4544C152.001 26.9569 152.231 25.6465 152.692 24.5234C153.154 23.4002 153.799 22.4643 154.583 21.7155C155.367 20.9667 156.336 20.4051 157.396 20.0775C158.457 19.7032 159.61 19.516 160.809 19.516C161.962 19.516 163.068 19.7032 163.991 20.0775C164.959 20.4519 165.881 21.1071 166.804 21.9963L164.221 24.7574C163.714 24.2894 163.207 23.9618 162.607 23.7746C162.054 23.5406 161.454 23.447 160.855 23.447C160.163 23.447 159.518 23.5874 158.918 23.8214C158.319 24.0554 157.811 24.4298 157.396 24.851C156.981 25.2722 156.658 25.8337 156.382 26.4421C156.151 27.0505 156.013 27.7057 156.013 28.4544C156.013 29.25 156.151 29.952 156.382 30.5604C156.612 31.1687 156.981 31.6835 157.396 32.1047C157.811 32.5259 158.319 32.8067 158.872 33.0407C159.425 33.2747 160.071 33.3683 160.716 33.3683C161.362 33.3683 162.008 33.2747 162.653 33.0407C163.299 32.8535 163.852 32.4791 164.36 31.9643L167.219 34.7722ZM177.963 23.4002C178.609 23.6342 179.254 24.0086 179.854 24.5702L182.067 21.7623C181.56 21.3411 181.099 20.9667 180.592 20.6859C180.085 20.4051 179.623 20.2179 179.07 20.0307C178.517 19.8435 177.963 19.75 177.41 19.6564C176.81 19.6096 176.211 19.5628 175.565 19.5628C174.827 19.5628 174.043 19.6564 173.213 19.8435C172.383 20.0307 171.645 20.3115 170.954 20.7327C170.262 21.1539 169.709 21.7155 169.248 22.3707C168.832 23.0726 168.602 23.8682 168.602 24.851C168.602 25.7869 168.832 26.5825 169.248 27.2377C169.663 27.8461 170.216 28.4076 170.862 28.782C171.507 29.1564 172.245 29.484 173.075 29.6712C173.905 29.8584 174.689 29.9988 175.473 30.0456C176.672 30.1392 177.502 30.2796 178.009 30.5604C178.517 30.8411 178.793 31.2623 178.793 31.8239C178.793 32.1515 178.747 32.4323 178.563 32.6663C178.424 32.9471 178.194 33.1343 177.917 33.3215C177.64 33.5086 177.318 33.649 176.949 33.7426C176.58 33.8362 176.211 33.883 175.842 33.883C175.381 33.883 174.874 33.8362 174.32 33.6958C173.767 33.5554 173.213 33.4151 172.706 33.1811C172.153 32.9471 171.692 32.7131 171.23 32.4323C170.815 32.1515 170.4 31.8239 170.124 31.4963L168.095 34.4914C168.694 35.1466 169.294 35.6614 169.939 36.0358C170.539 36.4569 171.184 36.7377 171.83 36.9717C172.476 37.1589 173.121 37.2993 173.767 37.3929C174.412 37.4397 175.104 37.4865 175.75 37.4865C176.949 37.4865 178.009 37.2993 178.886 37.0185C179.762 36.6909 180.5 36.3165 181.099 35.8018C181.699 35.287 182.114 34.6786 182.436 34.0234C182.759 33.3683 182.898 32.6663 182.898 31.9175C182.898 31.1687 182.805 30.5604 182.575 29.9988C182.39 29.4372 182.114 28.9692 181.745 28.5948C181.376 28.2204 180.961 27.8929 180.5 27.6589C180.038 27.3781 179.531 27.1909 179.024 27.0505C178.517 26.9101 177.963 26.8165 177.41 26.7229C176.902 26.637 176.395 26.5906 175.923 26.5473C175.88 26.5434 175.838 26.5396 175.796 26.5357C174.735 26.4889 173.951 26.3017 173.444 25.9741C172.937 25.6933 172.706 25.2722 172.706 24.7106C172.706 24.1958 172.983 23.7746 173.49 23.4938C173.997 23.213 174.781 23.0726 175.75 23.0726C176.58 23.0726 177.272 23.1662 177.963 23.4002Z" fill="white"/>
</svg>
