<svg width="485" height="70" viewBox="0 0 485 70" fill="none" xmlns="http://www.w3.org/2000/svg">
<path d="M202.418 70H161.71C144.861 70 131.178 56.1147 131.178 39.0164V30.9836C131.178 13.8852 144.861 0 161.71 0H202.418C219.267 0 232.949 13.8852 232.949 30.9836V39.0164C232.949 56.1147 219.323 70 202.418 70Z" fill="#ED7600"/>
<path d="M21.0962 44.6968C18.7216 46.246 15.5554 45.5001 14.0853 43.0902L0.798571 21.8033C-0.727995 19.3935 0.00701826 16.1804 2.38168 14.6886C4.75633 13.1394 7.92255 13.8853 9.39257 16.2951L22.6793 37.582C24.1494 39.9919 23.4709 43.1476 21.0962 44.6968Z" fill="#ED7600"/>
<path d="M22.8485 33.5655C20.4173 32.1311 19.6258 28.9754 21.0393 26.5082L26.7498 16.4672C28.1633 14 31.2729 13.1967 33.7041 14.6311C36.1353 16.0655 36.9269 19.2213 35.5134 21.6885L29.8029 31.6721C28.3894 34.1393 25.2797 35 22.8485 33.5655Z" fill="#ED7600"/>
<path d="M18.4386 21.4604C20.4995 21.4604 22.1702 19.7646 22.1702 17.6728C22.1702 15.5809 20.4995 13.8852 18.4386 13.8852C16.3777 13.8852 14.707 15.5809 14.707 17.6728C14.707 19.7646 16.3777 21.4604 18.4386 21.4604Z" fill="#ED7600"/>
<path d="M52.306 42.6312C51.1186 43.7787 49.8748 44.6394 48.6309 45.1558C47.387 45.6722 45.9735 45.9017 44.447 45.9017C42.977 45.9017 41.5635 45.6722 40.2631 45.2132C38.9627 44.7541 37.8319 44.0656 36.8142 43.1476C35.853 42.2295 35.0614 41.082 34.496 39.705C33.9306 38.4427 33.6479 36.8361 33.6479 35C33.6479 33.164 33.9306 31.5574 34.496 30.1804C35.0614 28.8033 35.853 27.6558 36.8142 26.7377C37.7753 25.8197 38.9627 25.1312 40.2631 24.7295C41.5635 24.2705 42.977 24.041 44.447 24.041C45.8605 24.041 47.2174 24.2705 48.3482 24.7295C49.5355 25.1886 50.6663 25.9918 51.7971 27.082L48.6309 30.4672C48.009 29.8935 47.387 29.4918 46.652 29.2623C45.9735 28.9754 45.2385 28.8607 44.5035 28.8607C43.6554 28.8607 42.8639 29.0328 42.1289 29.3197C41.3939 29.6066 40.7719 30.0656 40.2631 30.582C39.7542 31.0984 39.3584 31.7869 39.0192 32.5328C38.7365 33.2787 38.5669 34.082 38.5669 35C38.5669 35.9754 38.7365 36.8361 39.0192 37.582C39.3019 38.3279 39.7542 38.9591 40.2631 39.4754C40.7719 39.9918 41.3939 40.3361 42.0723 40.623C42.7508 40.9099 43.5424 41.0246 44.3339 41.0246C45.1255 41.0246 45.917 40.9099 46.7086 40.623C47.5001 40.3935 48.1786 39.9345 48.8005 39.3033L52.306 42.6312Z" fill="#979797"/>
<path d="M73.339 30.8115C72.8301 29.4918 72.1516 28.3443 71.1905 27.3689C70.2858 26.3935 69.155 25.6476 67.8546 25.0738C66.5542 24.5 65.0842 24.2131 63.4446 24.2131C61.8049 24.2131 60.3914 24.5 59.091 25.0738C57.7906 25.6476 56.6598 26.3935 55.7552 27.3689C54.8506 28.3443 54.1721 29.4918 53.6632 30.8115C53.1544 32.1312 52.9282 33.5082 52.9282 35C52.9282 36.4918 53.1544 37.8689 53.6632 39.1885C54.1156 40.5082 54.8506 41.6558 55.7552 42.6312C56.6598 43.6066 57.7906 44.3525 59.091 44.9263C60.3914 45.5 61.8615 45.7869 63.5576 45.7869C65.2538 45.7869 66.6673 45.5 68.0243 44.9263C69.3247 44.3525 70.4555 43.6066 71.3601 42.6312C72.2647 41.6558 72.9997 40.5082 73.452 39.1885C73.9044 37.8689 74.1871 36.4918 74.1871 35C74.074 33.5082 73.8478 32.1312 73.339 30.8115ZM68.7027 37.2951C68.4766 38.041 68.1373 38.6722 67.6285 39.2459C67.1762 39.8197 66.6108 40.2787 65.8758 40.623C65.1973 40.9672 64.4057 41.1394 63.4446 41.1394C62.5399 41.1394 61.7484 40.9672 61.0134 40.623C60.3349 40.2787 59.7695 39.8197 59.2606 39.2459C58.8083 38.6722 58.4691 38.041 58.2429 37.2951C58.0168 36.5492 57.9037 35.8033 57.9037 35C57.9037 34.1967 58.0168 33.4508 58.2429 32.7623C58.4691 32.0164 58.8083 31.3853 59.3172 30.8115C59.7695 30.2377 60.3349 29.7787 61.0134 29.4344C61.6918 29.0902 62.4834 28.9181 63.388 28.9181C64.2361 28.9181 65.0277 29.0902 65.7061 29.4344C66.3846 29.7787 66.95 30.2377 67.4589 30.8115C67.9112 31.3853 68.307 32.0164 68.5897 32.7623C68.8724 33.5082 68.9854 34.2541 68.9854 35C69.042 35.8033 68.9289 36.5492 68.7027 37.2951Z" fill="#979797"/>
<path d="M92.5618 45.2704V34.4835C92.5618 33.6802 92.4487 32.9343 92.2225 32.3032C91.9964 31.6147 91.7137 31.0409 91.2614 30.5245C90.8656 30.0081 90.3567 29.6638 89.7348 29.3769C89.1129 29.0901 88.4344 28.9753 87.6428 28.9753C86.8513 28.9753 86.1728 29.1474 85.4943 29.4343C84.8724 29.7212 84.307 30.1802 83.8547 30.6966C83.4024 31.213 83.0631 31.8442 82.7804 32.5327C82.5543 33.2212 82.3847 33.9671 82.3847 34.7704V45.3278H77.4092V26.336C77.4092 25.3606 78.1442 24.6146 79.1054 24.6146H82.215V27.4261C83.2893 26.3933 84.307 25.5901 85.3813 25.0737C86.4555 24.5573 87.6428 24.2704 88.8867 24.2704C90.074 24.2704 91.2048 24.4999 92.2791 24.9589C93.3533 25.4179 94.258 26.0491 94.993 26.9097C95.7845 27.7704 96.4065 28.8032 96.8588 30.0655C97.3111 31.3278 97.5373 32.7622 97.5373 34.3688V45.213H92.5618V45.2704Z" fill="#979797"/>
<path d="M121.397 30.8115C120.888 29.4918 120.21 28.3443 119.249 27.3689C118.344 26.3935 117.213 25.6476 115.913 25.0738C114.612 24.5 113.142 24.2131 111.503 24.2131C109.863 24.2131 108.45 24.5 107.149 25.0738C105.849 25.6476 104.718 26.3935 103.813 27.3689C102.909 28.3443 102.23 29.4918 101.721 30.8115C101.212 32.1312 100.986 33.5082 100.986 35C100.986 36.4918 101.212 37.8689 101.721 39.1885C102.23 40.5082 102.909 41.6558 103.813 42.6312C104.718 43.6066 105.849 44.3525 107.149 44.9263C108.45 45.5 109.92 45.7869 111.616 45.7869C113.255 45.7869 114.725 45.5 116.082 44.9263C117.383 44.3525 118.514 43.6066 119.418 42.6312C120.323 41.6558 121.058 40.5082 121.51 39.1885C121.962 37.8689 122.245 36.4918 122.245 35C122.132 33.5082 121.906 32.1312 121.397 30.8115ZM116.704 37.2951C116.478 38.041 116.139 38.6722 115.63 39.2459C115.178 39.8197 114.612 40.2787 113.877 40.623C113.199 40.9672 112.407 41.1394 111.446 41.1394C110.541 41.1394 109.75 40.9672 109.015 40.623C108.336 40.2787 107.771 39.8197 107.262 39.2459C106.81 38.6722 106.471 38.041 106.244 37.2951C106.018 36.5492 105.905 35.8033 105.905 35C105.905 34.1967 106.018 33.4508 106.244 32.7623C106.471 32.0164 106.81 31.3853 107.319 30.8115C107.771 30.2377 108.336 29.7787 109.015 29.4344C109.693 29.0902 110.485 28.9181 111.39 28.9181C112.238 28.9181 113.029 29.0902 113.708 29.4344C114.386 29.7787 114.952 30.2377 115.46 30.8115C115.913 31.3853 116.308 32.0164 116.591 32.7623C116.874 33.5082 116.987 34.2541 116.987 35C117.1 35.8033 116.987 36.5492 116.704 37.2951Z" fill="#979797"/>
<path d="M154.529 45.272V34.2556C154.529 33.5671 154.416 32.9359 154.246 32.3048C154.077 31.6736 153.794 31.0998 153.455 30.6408C153.116 30.1818 152.663 29.7802 152.154 29.4933C151.646 29.2064 151.024 29.0916 150.345 29.0916C149.667 29.0916 149.045 29.2064 148.536 29.4933C148.027 29.7802 147.575 30.1818 147.179 30.6408C146.783 31.0998 146.5 31.6736 146.331 32.3048C146.161 32.9359 146.048 33.5671 146.048 34.2556V45.3294H141.016V26.3375C141.016 25.3621 141.751 24.6162 142.712 24.6162H146.105V27.1408C146.387 26.6244 146.727 26.1654 147.122 25.8212C147.518 25.4769 147.97 25.19 148.479 24.9605C148.988 24.731 149.44 24.5589 150.006 24.4441C150.515 24.3293 151.024 24.272 151.532 24.272C152.154 24.272 152.72 24.3294 153.342 24.5015C153.964 24.6162 154.529 24.8457 155.038 25.1326C155.547 25.4195 156.056 25.8212 156.508 26.3375C156.96 26.8539 157.299 27.4277 157.582 28.1162C158.034 27.3703 158.543 26.7966 159.052 26.2802C159.561 25.8212 160.126 25.4195 160.692 25.1326C161.257 24.8457 161.879 24.6736 162.501 24.5015C163.123 24.3867 163.745 24.3294 164.423 24.3294C165.893 24.3294 167.137 24.5589 168.212 24.9605C169.286 25.4195 170.19 26.0507 170.925 26.8539C171.66 27.7146 172.169 28.69 172.565 29.9523C172.904 31.1572 173.074 32.5343 173.074 34.0835V45.2146H168.042V34.1408C168.042 33.4523 167.985 32.8212 167.816 32.19C167.703 31.5589 167.477 31.0425 167.137 30.5835C166.855 30.1244 166.459 29.7802 165.95 29.4933C165.441 29.2064 164.876 29.0916 164.197 29.0916C163.519 29.0916 162.897 29.2064 162.331 29.4933C161.766 29.7802 161.314 30.1244 160.918 30.6408C160.522 31.0998 160.24 31.6736 160.07 32.2474C159.844 32.8785 159.787 33.5097 159.787 34.1982V45.272H154.529Z" fill="white"/>
<path d="M177.541 18.8202C177.541 18.1316 177.71 17.6151 177.993 17.156C178.276 16.6969 178.671 16.4099 179.067 16.1804C179.519 15.9508 179.972 15.8361 180.481 15.8361C180.989 15.8361 181.498 15.9508 181.894 16.1804C182.346 16.4099 182.686 16.7543 182.968 17.156C183.251 17.6151 183.421 18.1316 183.421 18.8202C183.421 19.5089 183.251 20.0253 182.968 20.4844C182.686 20.9435 182.29 21.2305 181.894 21.46C181.442 21.6896 180.989 21.8044 180.481 21.8044C179.972 21.8044 179.463 21.6896 179.067 21.46C178.615 21.2305 178.276 20.8862 177.993 20.4844C177.654 20.0253 177.541 19.5089 177.541 18.8202Z" fill="white"/>
<path d="M183.025 24.559H177.993V45.2721H183.025V24.559Z" fill="white"/>
<path d="M205.018 42.6327C203.831 43.7802 202.587 44.6409 201.343 45.1573C200.099 45.6737 198.686 45.9032 197.159 45.9032C195.689 45.9032 194.276 45.6737 192.975 45.2146C191.675 44.7556 190.544 44.0671 189.527 43.1491C188.565 42.231 187.774 41.0835 187.208 39.7064C186.643 38.3294 186.36 36.7228 186.36 34.8868C186.36 33.0507 186.643 31.4441 187.208 30.0671C187.774 28.69 188.565 27.5425 189.527 26.6245C190.488 25.7064 191.675 25.0179 192.975 24.6163C194.276 24.1572 195.689 23.9277 197.159 23.9277C198.573 23.9277 199.93 24.1572 201.061 24.6163C202.248 25.0753 203.379 25.8786 204.51 26.9687L201.343 30.354C200.721 29.7802 200.099 29.3786 199.364 29.1491C198.686 28.8622 197.951 28.7474 197.216 28.7474C196.368 28.7474 195.576 28.9195 194.841 29.2064C194.106 29.4933 193.484 29.9523 192.975 30.4687C192.467 30.9851 192.071 31.6736 191.732 32.4195C191.449 33.1654 191.279 33.9687 191.279 34.8868C191.279 35.8622 191.449 36.7228 191.732 37.4687C192.014 38.2146 192.467 38.8458 192.975 39.3622C193.484 39.8786 194.106 40.2228 194.785 40.5097C195.463 40.7966 196.255 40.9114 197.046 40.9114C197.838 40.9114 198.629 40.7966 199.421 40.5097C200.213 40.2802 200.891 39.8212 201.513 39.19L205.018 42.6327Z" fill="white"/>
<path d="M220.51 30.1245C219.775 29.4359 218.984 28.9769 218.192 28.69C217.344 28.4031 216.496 28.2884 215.478 28.2884C214.291 28.2884 213.33 28.4605 212.708 28.8048C212.086 29.149 211.747 29.6654 211.747 30.2966C211.747 30.9851 212.029 31.5015 212.651 31.8458C213.273 32.2474 214.234 32.4769 215.535 32.5343C216.157 32.5917 216.835 32.649 217.514 32.7638C218.192 32.8786 218.871 32.9933 219.493 33.1654C220.115 33.3376 220.736 33.5671 221.302 33.9113C221.867 34.1982 222.376 34.5999 222.828 35.0589C223.281 35.5179 223.62 36.0917 223.846 36.7802C224.129 37.4687 224.242 38.2146 224.242 39.1327C224.242 40.0507 224.072 40.9113 223.677 41.7146C223.281 42.5179 222.772 43.2638 222.037 43.895C221.302 44.5261 220.397 44.9851 219.323 45.3868C218.249 45.731 216.948 45.9605 215.478 45.9605C214.687 45.9605 213.839 45.9032 213.047 45.8458C212.256 45.731 211.464 45.5589 210.672 45.3294C209.881 45.0425 209.089 44.6982 208.354 44.1818C207.563 43.7228 206.828 43.0917 206.093 42.2884L208.581 38.6163C208.92 39.0179 209.429 39.4195 209.937 39.7638C210.503 40.1081 211.068 40.395 211.747 40.6818C212.369 40.9687 213.047 41.1409 213.726 41.313C214.404 41.4851 215.026 41.5425 215.591 41.5425C216.044 41.5425 216.496 41.4851 216.948 41.3704C217.401 41.2556 217.796 41.0835 218.136 40.854C218.475 40.6245 218.758 40.395 218.927 40.0507C219.153 39.7638 219.21 39.4195 219.21 39.0179C219.21 38.3294 218.871 37.813 218.249 37.4687C217.627 37.1245 216.609 36.9523 215.139 36.8376C214.178 36.7802 213.217 36.6081 212.199 36.3786C211.181 36.149 210.277 35.7474 209.485 35.2884C208.694 34.8294 208.015 34.1408 207.506 33.3949C206.997 32.5917 206.715 31.6163 206.715 30.4687C206.715 29.2638 206.997 28.2884 207.506 27.4277C208.072 26.6245 208.75 25.9359 209.598 25.4195C210.446 24.9031 211.351 24.5589 212.369 24.3294C213.386 24.0999 214.348 23.9851 215.252 23.9851C216.044 23.9851 216.779 24.0425 217.514 24.0999C218.192 24.2146 218.871 24.3294 219.549 24.5589C220.228 24.7884 220.793 25.0179 221.415 25.3622C222.037 25.7064 222.602 26.1654 223.224 26.6818L220.51 30.1245Z" fill="white"/>
<path d="M328.178 9.7857C328.036 10.1428 327.821 10.5 327.678 10.9286C327.393 11.5714 327.178 12.1428 326.964 12.7143C326.678 13.4286 326.464 14.0714 326.25 14.6428H325.964H325.678C325.536 14.1428 325.321 13.5 325.107 12.7857C324.893 12.0714 324.678 11.4286 324.464 10.9286C324.321 11.2857 324.107 11.7857 323.821 12.4286C323.607 13.0714 323.321 13.8571 323.107 14.5714H322.821C322.75 14.5714 322.75 14.5714 322.678 14.5714C322.607 14.5714 322.607 14.5714 322.536 14.5714C322.25 13.5714 321.964 12.7143 321.678 11.9286C321.393 11.1428 321.107 10.4286 320.821 9.64284C320.893 9.64284 320.964 9.64284 321.036 9.64284C321.107 9.64284 321.178 9.64284 321.25 9.64284C321.321 9.64284 321.393 9.64284 321.464 9.64284C321.536 9.64284 321.607 9.64284 321.678 9.64284C321.893 10.3571 322.036 11 322.25 11.5714C322.464 12.1428 322.678 12.7857 322.893 13.4286C323.107 13 323.321 12.4286 323.607 11.5714C323.893 10.7143 324.107 10.0714 324.25 9.64284L324.536 9.71427L324.821 9.64284C324.964 10.2143 325.178 10.8571 325.393 11.5714C325.607 12.2857 325.893 12.9286 326.107 13.4286C326.321 12.8571 326.607 12.1428 326.893 11.3571C327.178 10.5 327.393 9.92855 327.536 9.57141C327.607 9.57141 327.607 9.57141 327.678 9.57141C327.75 9.57141 327.75 9.57141 327.821 9.57141C327.893 9.57141 327.893 9.57141 327.964 9.57141C328.107 9.7857 328.178 9.7857 328.178 9.7857Z" fill="#4E4E4E"/>
<path d="M335.964 9.7857C335.821 10.1428 335.607 10.5 335.464 10.9286C335.178 11.5714 334.964 12.1428 334.75 12.7143C334.464 13.4286 334.25 14.0714 334.036 14.6428H333.75H333.464C333.321 14.1428 333.107 13.5 332.893 12.7857C332.678 12.0714 332.464 11.4286 332.25 10.9286C332.107 11.2857 331.893 11.7857 331.607 12.4286C331.393 13.0714 331.107 13.8571 330.893 14.5714H330.607C330.536 14.5714 330.536 14.5714 330.464 14.5714C330.393 14.5714 330.393 14.5714 330.321 14.5714C330.036 13.5714 329.75 12.7143 329.464 11.9286C329.178 11.1428 328.893 10.4286 328.607 9.64284C328.678 9.64284 328.75 9.64284 328.821 9.64284C328.893 9.64284 328.964 9.64284 329.036 9.64284C329.107 9.64284 329.178 9.64284 329.25 9.64284C329.321 9.64284 329.393 9.64284 329.464 9.64284C329.678 10.3571 329.821 11 330.036 11.5714C330.25 12.1428 330.464 12.7857 330.678 13.4286C330.893 13 331.107 12.4286 331.393 11.5714C331.678 10.7143 331.893 10.0714 332.036 9.64284L332.321 9.71427L332.607 9.64284C332.75 10.2143 332.964 10.8571 333.178 11.5714C333.393 12.2857 333.678 12.9286 333.893 13.4286C334.107 12.8571 334.393 12.1428 334.678 11.3571C334.964 10.5 335.178 9.92855 335.321 9.57141C335.393 9.57141 335.393 9.57141 335.464 9.57141C335.536 9.57141 335.536 9.57141 335.607 9.57141C335.678 9.57141 335.678 9.57141 335.75 9.57141C335.821 9.7857 335.893 9.7857 335.964 9.7857Z" fill="#4E4E4E"/>
<path d="M343.678 9.7857C343.536 10.1428 343.321 10.5 343.178 10.9286C342.893 11.5714 342.678 12.1428 342.464 12.7143C342.178 13.4286 341.964 14.0714 341.75 14.6428H341.464H341.178C341.036 14.1428 340.821 13.5 340.607 12.7857C340.393 12.0714 340.178 11.4286 339.964 10.9286C339.821 11.2857 339.607 11.7857 339.321 12.4286C339.107 13.0714 338.821 13.8571 338.607 14.5714H338.321C338.25 14.5714 338.25 14.5714 338.178 14.5714C338.107 14.5714 338.107 14.5714 338.036 14.5714C337.75 13.5714 337.464 12.7143 337.178 11.9286C336.893 11.1428 336.607 10.4286 336.321 9.64284C336.393 9.64284 336.464 9.64284 336.536 9.64284C336.607 9.64284 336.678 9.64284 336.75 9.64284C336.821 9.64284 336.893 9.64284 336.964 9.64284C337.036 9.64284 337.107 9.64284 337.178 9.64284C337.393 10.3571 337.536 11 337.75 11.5714C337.964 12.1428 338.178 12.7857 338.393 13.4286C338.607 13 338.821 12.4286 339.107 11.5714C339.393 10.7143 339.607 10.0714 339.75 9.64284L340.036 9.71427L340.321 9.64284C340.464 10.2143 340.678 10.8571 340.893 11.5714C341.107 12.2857 341.393 12.9286 341.607 13.4286C341.821 12.8571 342.107 12.1428 342.393 11.3571C342.678 10.5 342.893 9.92855 343.036 9.57141C343.107 9.57141 343.107 9.57141 343.178 9.57141C343.25 9.57141 343.25 9.57141 343.321 9.57141C343.393 9.57141 343.393 9.57141 343.464 9.57141C343.607 9.7857 343.607 9.7857 343.678 9.7857Z" fill="#4E4E4E"/>
<path d="M344.75 14.1429C344.75 14 344.821 13.8571 344.892 13.7143C345.035 13.5714 345.178 13.5 345.321 13.5C345.464 13.5 345.607 13.5714 345.75 13.7143C345.892 13.8571 345.892 14 345.892 14.1429C345.892 14.2857 345.821 14.4286 345.75 14.5714C345.607 14.7143 345.464 14.7857 345.321 14.7857C345.178 14.7857 345.035 14.7143 344.892 14.5714C344.821 14.4286 344.75 14.2857 344.75 14.1429Z" fill="#4E4E4E"/>
<path d="M348.607 8.07141C348.607 8.21427 348.536 8.35712 348.464 8.42855C348.393 8.49998 348.25 8.57141 348.107 8.57141C347.964 8.57141 347.821 8.49998 347.75 8.42855C347.678 8.35712 347.607 8.21427 347.607 8.07141C347.607 7.92855 347.678 7.78569 347.75 7.71427C347.821 7.64284 347.964 7.57141 348.107 7.57141C348.25 7.57141 348.321 7.64284 348.464 7.71427C348.607 7.78569 348.607 7.92855 348.607 8.07141ZM348.536 9.7857V14.6428L348.107 14.5714C348.036 14.5714 347.964 14.5714 347.964 14.5714C347.893 14.5714 347.821 14.5714 347.75 14.5714V9.7857C347.821 9.7857 347.893 9.7857 347.964 9.7857C348.036 9.7857 348.036 9.7857 348.178 9.7857H348.536Z" fill="#4E4E4E"/>
<path d="M350.393 14.6428V9.78568C350.464 9.78568 350.535 9.78568 350.607 9.78568C350.678 9.78568 350.678 9.78568 350.821 9.78568L351.178 9.71425V10.6428C351.321 10.3571 351.535 10.0714 351.821 9.92853C352.107 9.78568 352.393 9.64282 352.75 9.64282C353.321 9.64282 353.75 9.78568 353.964 10.1428C354.178 10.5 354.321 11 354.321 11.6428V14.5714L353.964 14.5C353.893 14.5 353.821 14.5 353.821 14.5C353.75 14.5 353.678 14.5 353.607 14.5V11.9285C353.607 11.3571 353.535 11 353.393 10.7143C353.25 10.3571 352.893 10.2142 352.464 10.2142C351.964 10.2142 351.607 10.4285 351.464 10.7857C351.321 11.0714 351.178 11.5714 351.178 12.2857V14.6428L350.821 14.5714C350.75 14.5714 350.678 14.5714 350.678 14.5714C350.535 14.6428 350.464 14.6428 350.393 14.6428Z" fill="#4E4E4E"/>
<path d="M356.035 14.6428V10.1428H355.393V9.7857H356.035V9.71427C356.107 8.99999 356.321 8.42856 356.535 7.99998C356.893 7.35713 357.321 7.07141 357.893 7.07141H358.107C358.107 7.14284 358.107 7.21427 358.035 7.42855C358.035 7.57141 358.035 7.71427 358.035 7.92856L357.964 7.99998L357.75 7.85713C357.607 7.7857 357.535 7.7857 357.393 7.7857C357.107 7.7857 356.893 7.85713 356.75 8.07141C356.607 8.2857 356.535 8.49998 356.535 8.85713C356.535 8.99998 356.535 9.21427 356.607 9.49998C356.678 9.64284 356.678 9.7857 356.678 9.85713H357.678V10.0714V10.2857H356.678V14.7857C356.607 14.7857 356.535 14.7857 356.464 14.7857C356.393 14.7857 356.321 14.7857 356.25 14.7857C356.178 14.7857 356.107 14.7857 356.035 14.7857C356.107 14.6428 356.035 14.6428 356.035 14.6428Z" fill="#4E4E4E"/>
<path d="M358.25 12.2143C358.25 11.5 358.464 10.9286 358.893 10.4286C359.321 10 359.821 9.71429 360.464 9.71429C361.107 9.71429 361.607 9.92858 361.964 10.4286C362.321 10.8572 362.536 11.5 362.536 12.2143C362.536 12.9286 362.321 13.5 361.964 14C361.536 14.5 361.036 14.7857 360.321 14.7857C359.75 14.7857 359.25 14.5714 358.893 14.1429C358.464 13.7143 358.25 13.1429 358.25 12.4286V12.2143ZM360.464 10.0714C359.964 10.0714 359.607 10.2857 359.321 10.7857C359.107 11.2143 359.036 11.7143 359.036 12.3571C359.036 12.9286 359.107 13.4286 359.321 13.7857C359.536 14.2143 359.964 14.4286 360.393 14.4286C360.821 14.4286 361.179 14.1429 361.464 13.5714C361.679 13.1429 361.75 12.6429 361.75 12.1429C361.75 11.5714 361.679 11.1429 361.464 10.7143C361.25 10.2857 360.964 10.0714 360.464 10.0714Z" fill="#4E4E4E"/>
<path d="M366.893 7.57141C367.964 7.57141 368.821 7.85712 369.536 8.42855C370.25 9.07141 370.607 9.92855 370.607 11C370.607 11.9286 370.321 12.7143 369.821 13.3571C369.393 13.9286 368.75 14.2857 368.036 14.5714C368.75 15.1428 369.464 15.7143 370.25 16.2857C370.107 16.3571 369.964 16.4286 369.821 16.5C369.679 16.5714 369.536 16.6428 369.464 16.7143C369.393 16.6428 369.107 16.3571 368.607 15.8571C368.036 15.3571 367.607 15 367.25 14.7143C367.179 14.7143 367.036 14.7857 367.036 14.7857C365.893 14.7857 365.036 14.5 364.321 13.8571C363.607 13.2143 363.25 12.2857 363.25 11.1428C363.25 10.0714 363.607 9.21427 364.321 8.57141C365.036 7.85713 365.893 7.57141 366.893 7.57141ZM369.679 11.1428C369.679 10.6428 369.607 10.2143 369.536 9.92855C369.464 9.57141 369.25 9.2857 369.036 8.92856C368.821 8.57141 368.464 8.35713 368.107 8.21427C367.75 8.07141 367.393 7.92855 366.964 7.92855C366.036 7.92855 365.321 8.2857 364.893 8.99998C364.464 9.64284 364.25 10.4286 364.25 11.3571C364.25 12.4286 364.536 13.2143 365.036 13.7857C365.536 14.2857 366.107 14.5714 366.893 14.5714C367.893 14.5714 368.607 14.1428 369.107 13.2143C369.536 12.4286 369.679 11.7857 369.679 11.1428Z" fill="#4E4E4E"/>
<path d="M371.893 14.1429C371.893 14 371.964 13.8571 372.035 13.7143C372.178 13.5714 372.321 13.5 372.464 13.5C372.607 13.5 372.75 13.5714 372.893 13.7143C373.035 13.8571 373.035 14 373.035 14.1429C373.035 14.2857 372.964 14.4286 372.893 14.5714C372.75 14.7143 372.607 14.7857 372.464 14.7857C372.321 14.7857 372.178 14.7143 372.035 14.5714C371.964 14.4286 371.893 14.2857 371.893 14.1429Z" fill="#4E4E4E"/>
<path d="M377.25 12L378.036 9.78572C378.107 9.78572 378.107 9.78572 378.178 9.78572C378.25 9.78572 378.25 9.78572 378.321 9.78572C378.393 9.78572 378.464 9.78572 378.607 9.71429C378.464 10.0714 378.25 10.5 377.964 11.1429C377.75 11.7143 377.464 12.2857 377.25 12.9286C376.964 13.6429 376.75 14.2143 376.607 14.5714H376.321C376.25 14.5714 376.107 14.5714 376.036 14.5714C375.821 14 375.536 13.2143 375.178 12.2857C374.821 11.3572 374.464 10.5 374.107 9.71429C374.321 9.71429 374.464 9.78572 374.536 9.78572C374.607 9.78572 374.678 9.78572 374.75 9.78572C374.821 9.78572 374.893 9.78572 374.964 9.78572C375.107 10.2857 375.321 10.8572 375.536 11.5714C375.821 12.2857 376.107 13 376.393 13.7143C376.393 13.7143 376.464 13.6429 376.464 13.5714C376.536 13.5 376.536 13.4286 376.536 13.4286L377.25 12Z" fill="#4E4E4E"/>
<path d="M379.607 14.6428V9.78568C379.678 9.78568 379.75 9.78568 379.821 9.78568C379.893 9.78568 379.893 9.78568 380.036 9.78568L380.393 9.71425V10.6428C380.536 10.3571 380.75 10.0714 381.036 9.92853C381.321 9.78568 381.607 9.64282 381.964 9.64282C382.536 9.64282 382.964 9.78568 383.178 10.1428C383.393 10.5 383.536 11 383.536 11.6428V14.5714L383.178 14.5C383.107 14.5 383.036 14.5 383.036 14.5C382.964 14.5 382.893 14.5 382.821 14.5V11.9285C382.821 11.3571 382.75 11 382.607 10.7143C382.464 10.3571 382.107 10.2142 381.678 10.2142C381.178 10.2142 380.821 10.4285 380.678 10.7857C380.536 11.0714 380.393 11.5714 380.393 12.2857V14.6428L380.036 14.5714C379.964 14.5714 379.893 14.5714 379.893 14.5714C379.821 14.6428 379.75 14.6428 379.607 14.6428Z" fill="#4E4E4E"/>
<path d="M324.464 69.9285C323.393 69.9285 322.535 69.5713 321.893 68.7856C321.25 67.9999 320.893 66.9999 320.893 65.7142C320.893 64.4285 321.25 63.4285 321.893 62.6427C322.535 61.857 323.393 61.4999 324.464 61.4999C325.464 61.4999 326.321 61.7856 326.964 62.4285C327.75 63.1427 328.107 64.2142 328.107 65.4999C328.107 66.7856 327.75 67.857 327.107 68.7142C326.393 69.4999 325.535 69.9285 324.464 69.9285ZM327.178 65.6427C327.178 65.0713 327.107 64.5713 327.035 64.2142C326.964 63.7856 326.821 63.4285 326.535 63.0713C326.321 62.7142 326.035 62.4284 325.678 62.2142C325.321 61.9999 324.964 61.9285 324.535 61.9285C323.678 61.9285 323.035 62.2856 322.535 62.9999C322.035 63.7142 321.821 64.7142 321.821 65.9285C321.821 67.0713 322.107 67.9999 322.607 68.6427C323.107 69.2856 323.678 69.5713 324.464 69.5713C325.321 69.5713 326.035 69.1427 326.535 68.2142C326.964 67.4999 327.178 66.7142 327.178 65.857V65.6427Z" fill="#4E4E4E"/>
<path d="M329.321 69.7856V64.0713C329.464 64.0713 329.535 64.0713 329.535 64.0713C329.607 64.0713 329.678 64.0713 329.749 64.0713L330.178 63.9999V65.0713C330.392 64.7142 330.607 64.4285 330.964 64.2142C331.249 63.9999 331.607 63.9285 332.035 63.9285C332.678 63.9285 333.178 64.1428 333.464 64.4999C333.749 64.857 333.892 65.4999 333.892 66.2856V69.7142L333.464 69.6428C333.392 69.6428 333.321 69.6428 333.249 69.6428C333.178 69.6428 333.107 69.6427 332.964 69.7142V66.4999C332.964 65.857 332.892 65.4285 332.749 65.1428C332.535 64.7856 332.178 64.5713 331.678 64.5713C331.107 64.5713 330.749 64.7856 330.464 65.2142C330.249 65.5713 330.178 66.1428 330.178 66.9285V69.7142L329.749 69.6428C329.678 69.6428 329.607 69.6428 329.535 69.6428C329.535 69.7142 329.464 69.7142 329.321 69.7856Z" fill="#4E4E4E"/>
<path d="M336.036 69.7856V60.8571H336.465H336.893V69.7856L336.465 69.7142C336.393 69.7142 336.322 69.7142 336.25 69.7142C336.25 69.7142 336.179 69.7142 336.036 69.7856Z" fill="#4E4E4E"/>
<path d="M340.321 62.0713C340.321 62.2142 340.25 62.357 340.178 62.4999C340.035 62.6428 339.964 62.6428 339.75 62.6428C339.607 62.6428 339.464 62.5713 339.321 62.4999C339.178 62.357 339.178 62.2142 339.178 62.0713C339.178 61.9285 339.25 61.7856 339.321 61.6428C339.464 61.4999 339.607 61.4285 339.75 61.4285C339.893 61.4285 340.035 61.4999 340.178 61.5713C340.321 61.7142 340.321 61.857 340.321 62.0713ZM340.25 64.0713V69.7856L339.821 69.7142C339.75 69.7142 339.678 69.7142 339.607 69.7142C339.535 69.7142 339.464 69.7142 339.321 69.7856V64.0713C339.464 64.0713 339.535 64.0713 339.535 64.0713C339.607 64.0713 339.678 64.0713 339.75 64.0713H340.25Z" fill="#4E4E4E"/>
<path d="M342.393 69.7856V64.0713C342.536 64.0713 342.607 64.0713 342.607 64.0713C342.679 64.0713 342.75 64.0713 342.822 64.0713L343.25 63.9999V65.0713C343.464 64.7142 343.679 64.4285 344.036 64.2142C344.322 63.9999 344.679 63.9285 345.107 63.9285C345.75 63.9285 346.25 64.1428 346.536 64.4999C346.822 64.857 346.964 65.4999 346.964 66.2856V69.7142L346.536 69.6428C346.464 69.6428 346.393 69.6428 346.322 69.6428C346.25 69.6428 346.179 69.6427 346.036 69.7142V66.4999C346.036 65.857 345.964 65.4285 345.822 65.1428C345.607 64.7856 345.25 64.5713 344.75 64.5713C344.179 64.5713 343.822 64.7856 343.536 65.2142C343.322 65.5713 343.25 66.1428 343.25 66.9285V69.7142L342.822 69.6428C342.75 69.6428 342.679 69.6428 342.607 69.6428C342.607 69.7142 342.464 69.7142 342.393 69.7856Z" fill="#4E4E4E"/>
<path d="M353.035 68.4999V69.1427C352.75 69.357 352.392 69.5713 352.107 69.6427C351.75 69.7856 351.464 69.857 351.107 69.857C350.321 69.857 349.678 69.5713 349.178 69.0713C348.678 68.5713 348.464 67.857 348.464 66.9285C348.464 66.0713 348.678 65.357 349.107 64.857C349.607 64.2856 350.25 63.9999 351.107 63.9999C351.75 63.9999 352.25 64.2142 352.678 64.6427C353.178 65.1427 353.392 65.7856 353.392 66.6427V66.9285C353.107 66.9285 352.678 66.9285 352.035 66.9285C351.392 66.9285 351.107 66.9285 351.035 66.9285H349.392V67.1427C349.392 67.7856 349.535 68.2856 349.892 68.7142C350.25 69.1427 350.75 69.357 351.392 69.357C351.75 69.357 352.107 69.2856 352.392 69.0713C352.535 68.9285 352.75 68.7856 353.035 68.4999ZM349.321 66.4285H352.392C352.392 65.857 352.321 65.357 352.107 64.9999C351.892 64.5713 351.464 64.357 350.964 64.357C350.464 64.357 350.035 64.5713 349.75 64.9999C349.464 65.4285 349.321 65.9285 349.321 66.4285Z" fill="#4E4E4E"/>
<path d="M357.822 69.7856V64.0713C357.965 64.0713 358.036 64.0713 358.036 64.0713C358.107 64.0713 358.179 64.0713 358.25 64.0713L358.679 63.9999V64.9999C358.893 64.6428 359.107 64.357 359.322 64.2142C359.607 63.9999 359.965 63.9285 360.322 63.9285C360.679 63.9285 361.036 63.9999 361.322 64.2142C361.607 64.4285 361.822 64.7142 361.965 65.0713C362.179 64.6427 362.465 64.357 362.75 64.2142C363.036 63.9999 363.393 63.9285 363.75 63.9285C364.393 63.9285 364.893 64.1428 365.179 64.4999C365.465 64.857 365.607 65.4285 365.607 66.2142V69.6428L365.179 69.5713C365.107 69.5713 365.036 69.5713 364.965 69.5713C364.893 69.5713 364.822 69.5713 364.679 69.6428V66.4285C364.679 65.7856 364.607 65.357 364.465 65.0713C364.25 64.6427 363.893 64.4999 363.393 64.4999C362.893 64.4999 362.536 64.7142 362.322 65.1428C362.179 65.4285 362.107 65.857 362.107 66.4285V69.6428L361.679 69.5713C361.607 69.5713 361.536 69.5713 361.465 69.5713C361.393 69.5713 361.322 69.5713 361.179 69.6428V66.1427C361.179 65.0713 360.75 64.4999 359.965 64.4999C359.393 64.4999 359.036 64.6428 358.822 64.9999C358.679 65.2856 358.607 65.6427 358.607 66.1427V69.5713L358.179 69.4999C358.107 69.4999 358.036 69.4999 357.965 69.4999C358.036 69.7142 357.893 69.7142 357.822 69.7856Z" fill="#4E4E4E"/>
<path d="M371.321 66V68.7143V68.8571C371.321 69 371.321 69.1428 371.393 69.2143C371.464 69.2857 371.536 69.2857 371.607 69.2857L371.964 69.2143V69.5C371.893 69.5714 371.75 69.5714 371.607 69.6428L371.178 69.7143C370.964 69.7143 370.75 69.6428 370.607 69.5714C370.464 69.4285 370.393 69.2857 370.393 69L370.321 69.1428C369.821 69.6428 369.25 69.9285 368.607 69.9285C368.178 69.9285 367.821 69.7857 367.536 69.5C367.25 69.2143 367.107 68.8571 367.107 68.4285C367.107 67.9285 367.25 67.5714 367.536 67.3571C367.821 67.0714 368.393 66.8571 369.25 66.7143C369.607 66.6428 369.893 66.5714 370.036 66.5714C370.321 66.5 370.464 66.2857 370.464 65.9285C370.464 65.5 370.321 65.1428 370.107 64.9285C369.893 64.7143 369.536 64.5714 369.107 64.5714C368.75 64.5714 368.393 64.6428 368.178 64.8571C367.964 65 367.821 65.2143 367.821 65.3571H367.678V64.7142C367.964 64.5 368.25 64.3571 368.536 64.2143C368.821 64.0714 369.178 64.0714 369.464 64.0714C370.678 64 371.321 64.6428 371.321 66ZM370.393 68.5V66.7857L369.964 66.8571C369.321 67 368.893 67.1428 368.678 67.2143C368.25 67.4285 367.964 67.7857 367.964 68.2143C367.964 68.5714 368.036 68.8571 368.25 69.0714C368.464 69.2857 368.75 69.3571 369.107 69.3571C369.25 69.3571 369.464 69.2857 369.607 69.2143C369.75 69.1428 369.893 69 370.036 68.9285C370.107 68.8571 370.178 68.7857 370.25 68.7143C370.393 68.6428 370.393 68.5714 370.393 68.5Z" fill="#4E4E4E"/>
<path d="M373.25 69.7856V64.0713C373.392 64.0713 373.464 64.0713 373.464 64.0713C373.535 64.0713 373.607 64.0713 373.678 64.0713L374.107 63.9999V65.2142L374.178 65.0713C374.392 64.7142 374.607 64.4999 374.821 64.2856C375.107 64.0713 375.321 63.9285 375.607 63.9285C375.75 63.9285 375.892 63.9285 375.964 63.9999L375.821 64.9999C375.607 64.9285 375.464 64.857 375.25 64.7856C374.964 64.7856 374.678 64.857 374.535 65.0713C374.392 65.2856 374.25 65.4999 374.178 65.7142C374.107 65.9285 374.107 66.2142 374.107 66.5713V69.6428L373.678 69.5713C373.607 69.5713 373.535 69.5713 373.464 69.5713C373.464 69.7142 373.392 69.7142 373.25 69.7856Z" fill="#4E4E4E"/>
<path d="M378.036 60.8571V66.1428V66.4285C378.036 66.4999 378.036 66.5714 378.107 66.5714H378.178C378.321 66.5714 378.464 66.4999 378.678 66.2857C378.821 66.1428 378.964 65.9999 379.107 65.8571L379.821 65.0714L380.678 64.0714C380.821 64.0714 380.893 64.0714 380.893 64.0714C380.964 64.0714 381.036 64.0714 381.107 64.0714C381.178 64.0714 381.25 64.0714 381.321 64.0714C381.393 64.0714 381.464 64.0714 381.536 64.0714V64.1428C381.036 64.5714 380.536 64.9999 380.178 65.3571C379.821 65.7142 379.393 66.0714 379.036 66.4285C379.178 66.5714 379.464 66.9285 379.893 67.4999C379.964 67.5714 380.25 67.9285 380.821 68.5714C381.25 69.0714 381.536 69.4285 381.75 69.6428V69.7142C381.607 69.7142 381.536 69.6428 381.464 69.6428C381.393 69.6428 381.321 69.6428 381.178 69.6428C381.107 69.6428 380.964 69.6428 380.893 69.6428C380.75 69.6428 380.678 69.6428 380.607 69.6428C380.321 69.2857 380.036 68.8571 379.607 68.3571C379.25 67.9285 378.893 67.4999 378.464 66.9999C378.393 66.8571 378.25 66.7857 378.178 66.7857C378.107 66.7857 378.036 66.9285 378.036 67.2142V69.6428L377.607 69.5714C377.536 69.5714 377.464 69.5714 377.393 69.5714C377.321 69.5714 377.25 69.5714 377.107 69.6428V60.7142H377.536H378.036V60.8571Z" fill="#4E4E4E"/>
<path d="M387.036 68.4999V69.1427C386.75 69.357 386.393 69.5713 386.107 69.6427C385.75 69.7856 385.464 69.857 385.107 69.857C384.321 69.857 383.679 69.5713 383.179 69.0713C382.679 68.5713 382.464 67.857 382.464 66.9285C382.464 66.0713 382.679 65.357 383.107 64.857C383.607 64.2856 384.25 63.9999 385.107 63.9999C385.75 63.9999 386.25 64.2142 386.679 64.6427C387.179 65.1427 387.393 65.7856 387.393 66.6427V66.9285C387.107 66.9285 386.679 66.9285 386.036 66.9285C385.393 66.9285 385.107 66.9285 385.036 66.9285H383.393V67.1427C383.393 67.7856 383.536 68.2856 383.893 68.7142C384.25 69.1427 384.75 69.357 385.393 69.357C385.75 69.357 386.107 69.2856 386.393 69.0713C386.607 68.9285 386.821 68.7856 387.036 68.4999ZM383.321 66.4285H386.393C386.393 65.857 386.321 65.357 386.107 64.9999C385.893 64.5713 385.464 64.357 384.964 64.357C384.464 64.357 384.036 64.5713 383.75 64.9999C383.464 65.4285 383.321 65.9285 383.321 66.4285Z" fill="#4E4E4E"/>
<path d="M388.536 62.9284L389.393 62.5713V64.1427H390.607V64.4284V64.6427H389.393V67.6427V68.0713C389.393 68.6427 389.464 69.0713 389.607 69.2856C389.75 69.4999 389.964 69.5713 390.25 69.5713C390.321 69.5713 390.464 69.5713 390.536 69.5713C390.607 69.5713 390.679 69.4999 390.75 69.4999V69.7856C390.607 69.857 390.464 69.9284 390.25 69.9284C390.107 69.9999 389.893 69.9999 389.821 69.9999C389.393 69.9999 389.036 69.857 388.821 69.6427C388.607 69.357 388.464 68.9284 388.464 68.2856V68.0713V64.6427H387.75C387.75 64.5713 387.75 64.4999 387.75 64.4284C387.75 64.2856 387.75 64.2141 387.75 64.2141H388.464V62.9284H388.536Z" fill="#4E4E4E"/>
<path d="M395.25 69.7856V64.0713C395.392 64.0713 395.464 64.0713 395.464 64.0713C395.535 64.0713 395.607 64.0713 395.678 64.0713L396.107 63.9999V65.2142L396.178 65.0713C396.392 64.7142 396.607 64.4999 396.821 64.2856C397.107 64.0713 397.321 63.9285 397.607 63.9285C397.75 63.9285 397.892 63.9285 397.964 63.9999L397.821 64.9999C397.607 64.9285 397.464 64.857 397.25 64.7856C396.964 64.7856 396.678 64.857 396.535 65.0713C396.392 65.2856 396.25 65.4999 396.178 65.7142C396.107 65.9285 396.107 66.2142 396.107 66.5713V69.6428L395.678 69.5713C395.607 69.5713 395.535 69.5713 395.464 69.5713C395.464 69.7142 395.321 69.7142 395.25 69.7856Z" fill="#4E4E4E"/>
<path d="M403.321 68.4999V69.1427C403.035 69.357 402.678 69.5713 402.392 69.6427C402.035 69.7856 401.75 69.857 401.392 69.857C400.607 69.857 399.964 69.5713 399.464 69.0713C398.964 68.5713 398.75 67.857 398.75 66.9285C398.75 66.0713 398.964 65.357 399.392 64.857C399.892 64.2856 400.535 63.9999 401.392 63.9999C402.035 63.9999 402.535 64.2142 402.964 64.6427C403.464 65.1427 403.678 65.7856 403.678 66.6427V66.9285C403.392 66.9285 402.964 66.9285 402.321 66.9285C401.678 66.9285 401.392 66.9285 401.321 66.9285H399.678V67.1427C399.678 67.7856 399.821 68.2856 400.178 68.7142C400.535 69.1427 401.035 69.357 401.678 69.357C402.035 69.357 402.392 69.2856 402.678 69.0713C402.821 68.9285 403.035 68.7856 403.321 68.4999ZM399.607 66.4285H402.678C402.678 65.857 402.607 65.357 402.392 64.9999C402.178 64.5713 401.75 64.357 401.25 64.357C400.75 64.357 400.321 64.5713 400.035 64.9999C399.75 65.4285 399.607 65.9285 399.607 66.4285Z" fill="#4E4E4E"/>
<path d="M404.678 68.5714H404.75C404.892 68.7857 405.107 69 405.321 69.2143C405.535 69.3571 405.821 69.5 406.035 69.5C406.321 69.5 406.607 69.4286 406.821 69.2143C407.035 69 407.178 68.7143 407.178 68.4286C407.178 67.9286 406.75 67.5714 405.821 67.2857C404.892 67 404.464 66.5 404.464 65.7857C404.464 65.2143 404.607 64.7857 404.964 64.5C405.321 64.2143 405.75 64.0714 406.321 64.0714C406.607 64.0714 406.821 64.1428 407.107 64.1428C407.321 64.2143 407.464 64.2857 407.607 64.3571C407.464 64.6428 407.392 64.9286 407.321 65.2143H407.25C407.178 65 407.035 64.7857 406.821 64.6428C406.607 64.5 406.464 64.4286 406.25 64.4286C405.964 64.4286 405.678 64.5 405.535 64.6428C405.321 64.7857 405.25 65.0714 405.25 65.3571C405.25 65.8571 405.678 66.2143 406.607 66.5C407.535 66.7857 407.964 67.2857 407.964 67.9285C407.964 68.5 407.75 69 407.321 69.3571C406.892 69.6428 406.464 69.8571 405.892 69.8571C405.392 69.8571 404.892 69.7143 404.464 69.4286C404.535 69.2143 404.535 69.0714 404.607 69C404.607 68.8571 404.678 68.7143 404.678 68.5714Z" fill="#4E4E4E"/>
<path d="M413.535 68.4999V69.1427C413.25 69.357 412.892 69.5713 412.607 69.6427C412.25 69.7856 411.964 69.857 411.607 69.857C410.821 69.857 410.178 69.5713 409.678 69.0713C409.178 68.5713 408.964 67.857 408.964 66.9285C408.964 66.0713 409.178 65.357 409.607 64.857C410.107 64.2856 410.75 63.9999 411.607 63.9999C412.25 63.9999 412.75 64.2142 413.178 64.6427C413.678 65.1427 413.892 65.7856 413.892 66.6427V66.9285C413.607 66.9285 413.178 66.9285 412.535 66.9285C411.892 66.9285 411.607 66.9285 411.535 66.9285H409.892V67.1427C409.892 67.7856 410.035 68.2856 410.392 68.7142C410.75 69.1427 411.25 69.357 411.892 69.357C412.25 69.357 412.607 69.2856 412.892 69.0713C413.107 68.9285 413.321 68.7856 413.535 68.4999ZM409.892 66.4285H412.964C412.964 65.857 412.892 65.357 412.678 64.9999C412.464 64.5713 412.035 64.357 411.535 64.357C411.035 64.357 410.607 64.5713 410.321 64.9999C409.964 65.4285 409.892 65.9285 409.892 66.4285Z" fill="#4E4E4E"/>
<path d="M418.964 66V68.7143V68.8571C418.964 69 418.964 69.1428 419.035 69.2143C419.107 69.2857 419.178 69.2857 419.25 69.2857L419.607 69.2143V69.5C419.535 69.5714 419.392 69.5714 419.25 69.6428L418.821 69.7143C418.607 69.7143 418.392 69.6428 418.25 69.5714C418.107 69.4285 418.035 69.2857 418.035 69L417.964 69.1428C417.464 69.6428 416.892 69.9285 416.25 69.9285C415.821 69.9285 415.464 69.7857 415.178 69.5C414.892 69.2143 414.75 68.8571 414.75 68.4285C414.75 67.9285 414.892 67.5714 415.178 67.3571C415.464 67.0714 416.035 66.8571 416.892 66.7143C417.25 66.6428 417.535 66.5714 417.678 66.5714C417.964 66.5 418.107 66.2857 418.107 65.9285C418.107 65.5 417.964 65.1428 417.75 64.9285C417.535 64.7143 417.178 64.5714 416.75 64.5714C416.392 64.5714 416.035 64.6428 415.821 64.8571C415.607 65 415.464 65.2143 415.464 65.3571H415.321V64.7142C415.607 64.5 415.892 64.3571 416.178 64.2143C416.464 64.0714 416.821 64.0714 417.107 64.0714C418.321 64 418.964 64.6428 418.964 66ZM418.035 68.5V66.7857L417.607 66.8571C416.964 67 416.535 67.1428 416.321 67.2143C415.892 67.4285 415.607 67.7857 415.607 68.2143C415.607 68.5714 415.678 68.8571 415.892 69.0714C416.107 69.2857 416.392 69.3571 416.75 69.3571C416.892 69.3571 417.107 69.2857 417.25 69.2143C417.392 69.1428 417.535 69 417.678 68.9285C417.75 68.8571 417.821 68.7857 417.892 68.7143C418.035 68.6428 418.035 68.5714 418.035 68.5Z" fill="#4E4E4E"/>
<path d="M420.893 69.7856V64.0713C421.035 64.0713 421.107 64.0713 421.107 64.0713C421.178 64.0713 421.25 64.0713 421.321 64.0713L421.75 63.9999V65.2142L421.821 65.0713C422.035 64.7142 422.25 64.4999 422.464 64.2856C422.75 64.0713 422.964 63.9285 423.25 63.9285C423.393 63.9285 423.535 63.9285 423.607 63.9999L423.464 64.9999C423.25 64.9285 423.107 64.857 422.893 64.7856C422.607 64.7856 422.321 64.857 422.178 65.0713C422.035 65.2856 421.893 65.4999 421.821 65.7142C421.75 65.9285 421.75 66.2142 421.75 66.5713V69.6428L421.321 69.5713C421.25 69.5713 421.178 69.5713 421.107 69.5713C421.107 69.7142 421.035 69.7142 420.893 69.7856Z" fill="#4E4E4E"/>
<path d="M429.107 64.4999L428.821 65.2856H428.75C428.75 65.2856 428.679 65.2142 428.607 65.1428C428.536 65.0713 428.464 64.9999 428.393 64.9285C428.25 64.7856 428.107 64.6428 427.893 64.5713C427.679 64.4999 427.464 64.4285 427.25 64.4285C426.607 64.4285 426.107 64.6428 425.75 65.1428C425.393 65.5713 425.25 66.1428 425.25 66.8571C425.25 67.6428 425.464 68.2142 425.821 68.7142C426.179 69.2142 426.679 69.4285 427.321 69.4285C427.607 69.4285 427.893 69.3571 428.179 69.2142C428.393 69.1428 428.607 68.9285 428.893 68.6428H428.964L428.893 69.2142C428.607 69.4285 428.393 69.5713 428.107 69.6428C427.821 69.7142 427.536 69.7856 427.179 69.7856C426.25 69.7856 425.536 69.4999 424.964 68.9285C424.464 68.3571 424.25 67.7142 424.25 66.7856C424.25 65.8571 424.536 65.1428 425.036 64.6428C425.607 64.1428 426.321 63.8571 427.179 63.8571C427.536 63.8571 427.821 63.9285 428.107 63.9285C428.536 64.1428 428.821 64.2856 429.107 64.4999Z" fill="#4E4E4E"/>
<path d="M430.536 69.7856V60.8571H430.964H431.393V65.1428C431.607 64.7856 431.821 64.4999 432.179 64.2856C432.464 64.0713 432.821 63.9999 433.25 63.9999C433.893 63.9999 434.393 64.2142 434.679 64.5713C434.964 64.9285 435.107 65.5713 435.107 66.2856V69.7142L434.679 69.6428C434.607 69.6428 434.536 69.6428 434.464 69.6428C434.393 69.6428 434.321 69.6428 434.178 69.7142V66.4999C434.178 65.7856 434.107 65.3571 433.893 64.9999C433.678 64.6428 433.321 64.4999 432.893 64.4999C432.393 64.4999 432.036 64.6428 431.75 64.9999C431.536 65.2856 431.393 65.7856 431.393 66.4285V69.7142L430.964 69.6428C430.893 69.6428 430.821 69.6428 430.75 69.6428C430.75 69.7142 430.607 69.7142 430.536 69.7856Z" fill="#4E4E4E"/>
<path fill-rule="evenodd" clip-rule="evenodd" d="M476.608 30C476.608 42.1428 466.75 51.9286 454.679 51.9286C442.536 51.9286 432.75 42.1428 432.75 30C432.75 17.8571 442.608 8.07141 454.679 8.07141C466.822 8.07141 476.608 17.9286 476.608 30Z" fill="white"/>
<path d="M483.821 29.3571C483.821 13.2857 470.749 0.214294 454.678 0.214294C438.607 0.214294 425.535 13.2857 425.535 29.3571C425.535 45.4286 438.535 58.5 454.678 58.5C455.035 58.5 455.392 58.5 455.749 58.5C456.678 59.7857 462.178 66.5714 472.821 69.0714C469.392 67 463.892 60.1429 463.892 57.1429V57.0714C475.464 53.2143 483.821 42.2857 483.821 29.3571ZM453.964 47.9286C443.821 47.9286 435.607 39.7143 435.607 29.5714C435.607 19.4286 443.821 11.2143 453.964 11.2143C464.107 11.2143 472.321 19.4286 472.321 29.5714C472.321 39.7143 464.107 47.9286 453.964 47.9286Z" fill="black"/>
<path d="M472.75 69.2857C462.393 66.8571 456.821 60.2857 455.607 58.7143C455.321 58.7143 454.964 58.7143 454.678 58.7143C438.464 58.7143 425.321 45.5 425.321 29.3571C425.321 13.1429 438.464 0 454.678 0C470.893 0 484.036 13.1429 484.036 29.3571C484.036 42 476.036 53.1429 464.107 57.2143C464.178 60.0714 469.607 66.8571 472.893 68.8571L472.75 69.2857ZM455.893 58.2143L455.964 58.2857C456.893 59.5714 461.964 65.7143 471.536 68.4286C468.107 65.7143 463.607 59.8571 463.607 57.0714V56.7857L463.75 56.7143C475.607 52.7857 483.536 41.7857 483.536 29.2857C483.536 13.3571 470.607 0.42857 454.678 0.42857C438.75 0.42857 425.821 13.3571 425.821 29.2857C425.821 45.2143 438.75 58.1429 454.678 58.1429C455.036 58.1429 455.393 58.1429 455.75 58.1429L455.893 58.2143ZM453.964 48.2143C443.678 48.2143 435.393 39.8571 435.393 29.6429C435.393 19.3571 443.75 11.0714 453.964 11.0714C464.25 11.0714 472.536 19.4286 472.536 29.6429C472.607 39.8571 464.25 48.2143 453.964 48.2143ZM453.964 11.5C443.964 11.5 435.893 19.6429 435.893 29.5714C435.893 39.5714 444.036 47.6429 453.964 47.6429C463.964 47.6429 472.036 39.5 472.036 29.5714C472.107 19.6429 463.964 11.5 453.964 11.5Z" fill="black"/>
<path d="M413.75 32C407.178 32 401.821 37.3571 401.821 43.9286C401.821 50.5 407.178 55.8571 413.75 55.8571C420.321 55.8571 425.678 50.5 425.678 43.9286C425.678 37.3571 420.321 32 413.75 32ZM413.75 48.8571C411.036 48.8571 408.821 46.6429 408.821 43.9286C408.821 41.2143 411.036 39 413.75 39C416.464 39 418.678 41.2143 418.678 43.9286C418.678 46.7143 416.464 48.8571 413.75 48.8571Z" fill="black"/>
<path d="M413.75 56.1429C407.036 56.1429 401.607 50.7143 401.607 43.9286C401.607 37.2143 407.036 31.7858 413.75 31.7858C420.464 31.7858 425.964 37.2143 425.964 43.9286C425.893 50.6429 420.464 56.1429 413.75 56.1429ZM413.75 32.2858C407.321 32.2858 402.107 37.5001 402.107 43.9286C402.107 50.3572 407.321 55.5715 413.75 55.5715C420.178 55.5715 425.393 50.3572 425.393 43.9286C425.393 37.5001 420.178 32.2858 413.75 32.2858ZM413.75 49.1429C410.893 49.1429 408.536 46.7858 408.536 43.9286C408.536 41.0715 410.893 38.7143 413.75 38.7143C416.607 38.7143 418.964 41.0715 418.964 43.9286C418.964 46.7858 416.607 49.1429 413.75 49.1429ZM413.75 39.2858C411.178 39.2858 409.107 41.3572 409.107 43.9286C409.107 46.5001 411.178 48.5715 413.75 48.5715C416.321 48.5715 418.464 46.5001 418.464 43.9286C418.393 41.3572 416.321 39.2858 413.75 39.2858Z" fill="black"/>
<path d="M402.965 27.2143C403.107 21.9286 403.179 20.5 403.179 20.5C403.179 20.5 393.107 18.5715 390.25 27.0715C390.25 28.7857 390.25 31.2857 390.25 34.2143H385.107V39.8572H390.25C390.322 47.2143 390.393 54.5 390.393 54.5L397.393 54.7143V39.7858H401.322V34.1429H397.393V29.3572C397.322 29.3572 398.822 25.2857 402.965 27.2143Z" fill="black"/>
<path d="M397.607 55L390.107 54.7857V54.5715C390.107 54.5715 390.036 47.4286 389.964 40.1429H384.821V34H389.964C389.964 30.9286 389.964 28.6429 389.964 27.1429V27.0715C392.893 18.5 403.107 20.2857 403.178 20.3572L403.393 20.4286V20.6429C403.393 20.6429 403.25 22.1429 403.178 27.2857V27.6429L402.821 27.5C401.678 26.9286 400.607 26.8572 399.678 27.2143C398.321 27.7857 397.678 29.2143 397.607 29.5V34H401.536V40.1429H397.607V55ZM390.607 54.2857L397.107 54.5V39.6429H401.036V34.5H397.107V29.3572C397.107 29.2857 397.821 27.5 399.536 26.7857C400.464 26.3572 401.607 26.4286 402.75 26.9286C402.821 23.0715 402.893 21.4286 402.964 20.8572C401.464 20.6429 393.107 19.7857 390.536 27.2857C390.536 28.7857 390.536 31.2143 390.536 34.3572V34.6429H385.393V39.7857H390.536V40.0714C390.536 46.3572 390.607 52.9286 390.607 54.2857Z" fill="black"/>
<path d="M384.536 41C384.536 41 383.965 33.5714 377.179 33.4286C374.679 33.5714 371.75 35.9286 370.036 37.5714V34.2857H362.822V54.4286H370.036V42.6429C370.179 42.5714 370.322 42.4286 370.322 42.4286C371.036 41.2143 374.893 35.2143 378.107 42.2143C378.179 49 378.322 54.8572 378.322 54.8572L384.679 54.5714L384.536 41Z" fill="black"/>
<path d="M378.107 55.1428V54.8571C378.107 54.7857 377.964 48.9285 377.893 42.2142C376.964 40.2142 375.893 39.1428 374.75 39.0714H374.679C372.679 39.0714 370.964 41.9285 370.607 42.4999C370.607 42.5714 370.536 42.6428 370.321 42.7142V54.7857H362.536V34.1428H370.25V37.0714C371.75 35.7142 374.607 33.3571 377.179 33.2142C384.107 33.3571 384.75 40.9285 384.75 40.9999L384.964 54.7857L378.107 55.1428ZM374.607 38.5714C374.679 38.5714 374.679 38.5714 374.75 38.5714C376.107 38.6428 377.321 39.7857 378.393 42.0714V42.1428C378.464 48.0714 378.607 53.3571 378.607 54.5714L384.464 54.2857L384.321 40.9999C384.321 40.6428 383.678 33.8571 377.25 33.6428C374.607 33.7857 371.464 36.5714 370.25 37.7142L369.821 38.1428V34.5714H363.107V54.2142H369.821V42.4285L369.964 42.3571C370.179 42.2142 370.179 42.2142 370.179 42.2142C370.607 41.3571 372.393 38.5714 374.607 38.5714Z" fill="black"/>
<path d="M359.821 34.5714H352.678V54.4286H359.821V34.5714Z" fill="black"/>
<path d="M360.107 54.7143H352.464V34.2858H360.107V54.7143ZM352.964 54.2143H359.607V34.7858H352.964V54.2143Z" fill="black"/>
<path d="M361.393 25.9285C361.393 28.9285 358.964 31.4285 355.893 31.4285C352.893 31.4285 350.393 28.9999 350.393 25.9285C350.393 22.9285 352.822 20.4285 355.893 20.4285C358.964 20.4285 361.393 22.9285 361.393 25.9285Z" fill="black"/>
<path d="M355.964 31.6428C352.821 31.6428 350.25 29.0714 350.25 25.9285C350.25 22.7857 352.821 20.2142 355.964 20.2142C359.107 20.2142 361.679 22.7857 361.679 25.9285C361.679 29.0714 359.107 31.6428 355.964 31.6428ZM355.964 20.7142C353.107 20.7142 350.75 23.0714 350.75 25.9285C350.75 28.7857 353.107 31.1428 355.964 31.1428C358.821 31.1428 361.179 28.7857 361.179 25.9285C361.179 23.0714 358.821 20.7142 355.964 20.7142Z" fill="black"/>
<path d="M463.751 31.0714C463.751 36.5714 459.322 41 453.822 41C448.322 41 443.894 36.5714 443.894 31.0714" fill="#E96424"/>
<path d="M442.25 29.1428C442.25 29.7143 441.75 30.2143 441.178 30.2143C440.607 30.2143 440.107 29.7143 440.107 29.1428C440.107 28.5714 440.607 28.0714 441.178 28.0714C441.75 28.0714 442.25 28.5714 442.25 29.1428Z" fill="#E96424"/>
<path d="M468.035 29.3571C468.035 29.9999 467.535 30.4285 466.964 30.4285C466.393 30.4285 465.893 29.9285 465.893 29.3571C465.893 28.7856 466.393 28.2856 466.964 28.2856C467.535 28.2856 468.035 28.7856 468.035 29.3571Z" fill="#E96424"/>
<path d="M448.25 24.9999C448.25 25.9285 447.464 26.7142 446.536 26.7142C445.607 26.7142 444.821 25.9285 444.821 24.9999C444.821 24.0714 445.607 23.2856 446.536 23.2856C447.464 23.2856 448.25 24.0714 448.25 24.9999Z" fill="black"/>
<path d="M463.75 25.1429C463.75 26.0714 462.964 26.8572 462.036 26.8572C461.107 26.8572 460.321 26.0714 460.321 25.1429C460.321 24.2143 461.107 23.4286 462.036 23.4286C462.964 23.4286 463.75 24.2143 463.75 25.1429Z" fill="black"/>
<path d="M451.822 28.5001C451.822 27.2144 452.822 26.2144 454.107 26.2144C455.393 26.2144 456.393 27.2144 456.393 28.5001" fill="black"/>
<path d="M333.822 42.9286C330.893 42.9286 328.536 40.5715 328.536 37.6429C328.536 34.7143 330.893 32.3572 333.822 32.3572C336.75 32.3572 339.108 34.7143 339.108 37.6429C339.108 40.5715 336.679 42.9286 333.822 42.9286ZM333.822 33.4286C331.465 33.4286 329.536 35.3572 329.536 37.7143C329.536 40.0715 331.465 42 333.822 42C336.179 42 338.108 40.0715 338.108 37.7143C338.036 35.3572 336.179 33.4286 333.822 33.4286Z" fill="#B5D334"/>
<path d="M341.607 34.5714C338.678 34.5714 336.321 32.2143 336.321 29.2857C336.321 26.3571 338.678 24 341.607 24C344.536 24 346.893 26.3571 346.893 29.2857C346.893 32.2143 344.536 34.5714 341.607 34.5714ZM341.607 25.0714C339.25 25.0714 337.321 27 337.321 29.3571C337.321 31.7143 339.25 33.6429 341.607 33.6429C343.964 33.6429 345.893 31.7143 345.893 29.3571C345.893 26.9286 343.964 25.0714 341.607 25.0714Z" fill="#B5D334"/>
<path d="M333.464 26.5C330.535 26.5 328.178 24.1429 328.178 21.2143C328.178 18.2857 330.535 15.9286 333.464 15.9286C336.393 15.9286 338.75 18.2857 338.75 21.2143C338.75 24.1429 336.393 26.5 333.464 26.5ZM333.464 16.9286C331.107 16.9286 329.178 18.8572 329.178 21.2143C329.178 23.5714 331.107 25.5 333.464 25.5C335.821 25.5 337.75 23.5714 337.75 21.2143C337.75 18.8572 335.821 16.9286 333.464 16.9286Z" fill="#B5D334"/>
<path d="M325.536 34.8572C322.607 34.8572 320.25 32.5 320.25 29.5715C320.25 26.6429 322.607 24.2858 325.536 24.2858C328.464 24.2858 330.821 26.6429 330.821 29.5715C330.75 32.5 328.393 34.8572 325.536 34.8572ZM325.536 25.2858C323.179 25.2858 321.25 27.2143 321.25 29.5715C321.25 31.9286 323.179 33.8572 325.536 33.8572C327.893 33.8572 329.821 31.9286 329.821 29.5715C329.75 27.2143 327.893 25.2858 325.536 25.2858Z" fill="#B5D334"/>
<path d="M330.536 46.357C330.536 48.7856 328.536 50.7856 326.107 50.7856C323.679 50.7856 321.679 48.7856 321.679 46.357C321.679 43.9285 323.679 41.9285 326.107 41.9285C328.536 41.9285 330.536 43.9285 330.536 46.357Z" fill="#B5D334"/>
<path d="M326.107 51.0714C323.536 51.0714 321.393 49 321.393 46.3571C321.393 43.7857 323.464 41.6428 326.107 41.6428C328.679 41.6428 330.822 43.7142 330.822 46.3571C330.822 48.9285 328.679 51.0714 326.107 51.0714ZM326.107 42.1428C323.822 42.1428 321.893 44 321.893 46.3571C321.893 48.6428 323.75 50.5714 326.107 50.5714C328.393 50.5714 330.322 48.7142 330.322 46.3571C330.322 44.0714 328.393 42.1428 326.107 42.1428Z" fill="#B5D334"/>
<path d="M345.678 46.5715C345.678 49.0001 343.678 51.0001 341.25 51.0001C338.821 51.0001 336.821 49.0001 336.821 46.5715C336.821 44.1429 338.821 42.1429 341.25 42.1429C343.678 42.1429 345.678 44.1429 345.678 46.5715Z" fill="#B5D334"/>
<path d="M341.249 51.2858C338.678 51.2858 336.535 49.2143 336.535 46.5715C336.535 44 338.607 41.8572 341.249 41.8572C343.821 41.8572 345.964 43.9286 345.964 46.5715C345.964 49.1429 343.821 51.2858 341.249 51.2858ZM341.249 42.4286C338.964 42.4286 337.035 44.2858 337.035 46.6429C337.035 48.9286 338.892 50.7857 341.249 50.7857C343.535 50.7857 345.392 48.9286 345.392 46.6429C345.464 44.2858 343.535 42.4286 341.249 42.4286Z" fill="#B5D334"/>
<path d="M334.75 42.2858H333.464V55.0001H334.75V42.2858Z" fill="#B5D334"/>
<path d="M326.856 50.4876L326.07 50.5016L326.143 54.5722L326.928 54.5582L326.856 50.4876Z" fill="#B5D334"/>
<path d="M341.567 50.7067L340.781 50.7223L340.862 54.7929L341.648 54.7773L341.567 50.7067Z" fill="#B5D334"/>
<path d="M331.464 25.0714C330.821 26.5 333.464 29.2143 333.464 29.2143C333.464 29.2143 336.678 32 335.75 33.0714" fill="#B5D334"/>
<path d="M335.964 33.2143L335.607 32.8572C335.678 32.7857 335.678 32.6429 335.678 32.5C335.607 31.5715 333.964 29.9286 333.321 29.3572C333.036 29.0714 330.536 26.5 331.25 24.9286L331.678 25.1429C331.178 26.2143 332.893 28.2857 333.607 29C333.821 29.2143 336.036 31.2143 336.107 32.5C336.178 32.7857 336.107 33 335.964 33.2143Z" fill="#B5D334"/>
<path d="M329.536 31.4286C330.964 32.1429 333.679 29.4286 333.679 29.4286C333.679 29.4286 336.464 26.2143 337.536 27.1429" fill="#B5D334"/>
<path d="M330.035 31.7858C329.821 31.7858 329.607 31.7143 329.393 31.6429L329.607 31.2143C330.678 31.7143 332.75 30.0001 333.464 29.2858C333.678 29.0715 335.678 26.8572 336.964 26.7858C337.25 26.7858 337.464 26.8572 337.678 27.0001L337.321 27.3572C337.25 27.2858 337.107 27.2858 337.035 27.2858C336.107 27.3572 334.464 29.0001 333.893 29.6429C333.607 29.8572 331.607 31.7858 330.035 31.7858Z" fill="#B5D334"/>
<path d="M443.321 54.7858H322.25V56.1429H443.321V54.7858Z" fill="black"/>
<path d="M443.535 56.4286H321.964V54.5714H443.535V56.4286ZM322.464 55.9286H443.035V55.0714H322.464V55.9286Z" fill="black"/>
</svg>
